<svg width="256" height="256" viewBox="0 0 256 256" fill="none" xmlns="http://www.w3.org/2000/svg">
<rect width="256" height="256" rx="48" fill="#FFED35"/>
<path fill-rule="evenodd" clip-rule="evenodd" d="M209.204 123.815C209.204 127.951 208.07 131.819 206.098 135.123L206.137 135.14C196.098 151.105 177.654 160.394 162.064 164.988C149.248 168.982 134.557 170.386 117.917 168.389C82.2997 164.113 58.967 147.006 45.4193 124.333C56.1043 118.708 62.7569 111.235 64.877 108.629C75.0105 126.642 92.8165 140.275 120.313 143.576C124.045 144.024 127.647 144.241 131.122 144.245L131.109 144.235C150.884 143.38 162.032 129.315 166.491 117.583C169.157 108.487 177.511 101.849 187.403 101.849C199.443 101.849 209.204 111.684 209.204 123.815ZM191.019 122.748C191.297 123.642 191.226 124.561 190.883 125.358L190.865 125.4C190.828 125.482 190.789 125.563 190.747 125.642C187.631 131.932 182.393 134.839 178.8 136.07C178.322 136.242 177.949 136.119 177.778 135.912C177.468 135.537 177.698 135.054 177.871 134.883C181.172 131.743 183.255 127.764 183.756 123.557C183.879 122.083 184.868 120.76 186.355 120.291C188.317 119.672 190.405 120.772 191.019 122.748Z" fill="#DD0865"/>
</svg>
